<?xml version="1.0" standalone="no"?>
<!DOCTYPE svg PUBLIC "-//W3C//DTD SVG 20010904//EN"
 "http://www.w3.org/TR/2001/REC-SVG-20010904/DTD/svg10.dtd">
<svg version="1.0" xmlns="http://www.w3.org/2000/svg"
 width="512.000000pt" height="512.000000pt" viewBox="0 0 512.000000 512.000000"
 preserveAspectRatio="xMidYMid meet">
<metadata>
Created by potrace 1.11, written by Peter Selinger 2001-2013
</metadata>
<g transform="translate(0.000000,512.000000) scale(0.100000,-0.100000)"
fill="#000000" stroke="none">
<path d="M3047 5104 c-1 -1 -27 -4 -57 -8 -118 -12 -151 -19 -305 -65 -104
-31 -226 -83 -253 -109 -8 -7 -18 -10 -23 -7 -5 4 -9 2 -9 -3 0 -6 -10 -12
-23 -16 -12 -3 -32 -15 -45 -26 -12 -11 -22 -18 -22 -15 0 5 -108 -71 -120
-84 -3 -3 -25 -22 -50 -42 -67 -54 -228 -219 -214 -219 3 0 -9 -15 -25 -32
-17 -18 -31 -38 -31 -44 0 -7 -7 -14 -15 -18 -8 -3 -15 -12 -15 -21 0 -8 -4
-15 -10 -15 -5 0 -10 -6 -10 -14 0 -8 -4 -16 -8 -18 -10 -4 -85 -152 -117
-230 -21 -52 -72 -216 -80 -256 -2 -10 -4 -17 -5 -17 -3 0 -9 -38 -26 -145
-10 -70 -17 -140 -18 -182 -1 -27 -4 -48 -7 -48 -8 0 -5 -38 4 -46 4 -4 2 -13
-4 -21 -6 -7 -8 -13 -3 -13 5 0 8 -17 7 -37 -1 -21 -2 -38 -3 -38 -1 0 -3 -10
-4 -22 -2 -13 1 -23 5 -23 4 0 4 -12 1 -27 -9 -35 -8 -256 1 -271 4 -6 3 -13
-3 -17 -6 -4 -7 -11 -4 -17 12 -19 11 -98 0 -98 -7 0 -7 -3 0 -8 6 -4 11 -28
10 -54 -1 -27 2 -48 6 -48 4 0 3 -11 -2 -25 -7 -17 -6 -25 1 -25 8 0 7 -5 -1
-15 -7 -8 -9 -15 -4 -15 5 0 9 -45 9 -100 0 -55 3 -100 6 -100 4 0 6 -12 7
-27 0 -16 1 -30 2 -33 1 -3 3 -27 5 -55 5 -61 14 -122 32 -215 7 -36 9 -42 20
-70 24 -58 65 -55 -653 -56 -362 -1 -670 -4 -684 -7 -14 -3 -36 -9 -50 -12
-14 -3 -36 -8 -49 -11 -14 -3 -31 -13 -39 -22 -7 -9 -10 -11 -7 -3 11 20 -43
-17 -88 -60 -51 -50 -76 -126 -72 -215 2 -38 6 -76 8 -84 15 -59 20 -76 26
-85 3 -5 6 -12 6 -15 2 -16 29 -87 36 -95 5 -5 9 -18 9 -30 0 -12 4 -25 8 -30
5 -6 23 -53 41 -105 17 -52 36 -104 42 -115 6 -12 11 -27 13 -35 2 -8 8 -28
15 -45 7 -16 15 -42 18 -57 3 -16 9 -28 13 -28 3 0 7 -6 7 -13 0 -8 9 -38 21
-68 29 -75 53 -141 112 -309 28 -80 55 -154 60 -165 5 -11 14 -38 21 -60 6
-22 16 -46 22 -53 5 -6 7 -12 3 -12 -12 0 43 -99 75 -135 33 -37 112 -95 138
-100 9 -2 36 -8 61 -14 31 -7 699 -11 2132 -11 l2086 0 -2 548 c-2 301 -6 558
-10 572 -4 14 -9 32 -10 40 -2 8 -8 28 -15 43 -6 16 -11 33 -11 38 0 5 -4 9
-10 9 -5 0 -10 7 -10 16 0 39 -107 174 -205 260 -40 34 -131 94 -145 94 -5 0
-10 4 -10 8 0 14 -166 83 -255 106 -145 37 -181 40 -432 41 l-213 0 0 106 c0
58 3 109 6 112 4 3 15 2 26 -4 19 -10 60 -21 86 -22 6 0 12 -4 12 -9 0 -4 3
-7 8 -6 4 1 21 -4 37 -11 17 -7 38 -13 48 -14 9 -1 17 -5 17 -10 0 -4 5 -5 10
-2 6 3 10 1 10 -4 0 -6 3 -10 8 -10 4 1 9 0 12 -1 3 -1 12 -3 20 -5 14 -3 116
-39 150 -53 8 -3 20 -7 25 -7 6 -1 22 -7 38 -13 27 -11 49 -17 112 -29 69 -12
180 -8 215 9 46 22 104 91 116 136 19 81 36 163 39 192 3 19 7 54 10 78 11 81
18 389 19 817 1 449 -4 564 -31 705 -3 19 -7 40 -7 45 -2 9 -18 93 -21 105 -1
3 -7 23 -13 45 -6 22 -12 43 -12 47 -1 4 -7 23 -16 43 -8 19 -11 35 -7 35 4 0
2 5 -5 12 -7 7 -12 20 -12 30 0 10 -4 18 -10 18 -5 0 -10 7 -10 15 0 8 -5 25
-12 38 -6 12 -15 30 -20 40 -12 26 -30 60 -40 77 -4 8 -13 27 -19 43 -6 15
-15 27 -19 27 -5 0 -14 16 -21 34 -7 19 -16 33 -21 30 -4 -3 -8 1 -8 8 0 7
-16 31 -35 52 -19 22 -35 43 -35 47 0 19 -263 269 -283 269 -6 0 -19 10 -31
23 -12 13 -28 21 -35 19 -8 -3 -11 0 -7 7 4 6 1 11 -8 11 -9 0 -16 5 -16 10 0
6 -9 10 -20 10 -10 0 -23 6 -27 13 -9 14 -83 53 -95 49 -4 -1 -8 2 -8 7 0 8
-37 24 -52 22 -5 -1 -8 4 -8 10 0 6 -7 9 -15 5 -8 -3 -15 -2 -15 2 0 6 -50 30
-80 37 -3 1 -12 4 -20 8 -23 9 -162 49 -185 52 -11 2 -38 6 -60 10 -22 3 -54
8 -72 11 -30 6 -211 13 -216 8z"/>
</g>
</svg>
